<mxfile host="app.diagrams.net" agent="Mozilla/5.0 (Windows NT 10.0; Win64; x64) AppleWebKit/537.36 (KHTML, like Gecko) Chrome/141.0.0.0 Safari/537.36" version="28.2.8">
  <diagram name="Page-1" id="c4acf3e9-155e-7222-9cf6-157b1a14988f">
    <mxGraphModel dx="872" dy="1565" grid="1" gridSize="10" guides="1" tooltips="1" connect="1" arrows="1" fold="1" page="1" pageScale="1" pageWidth="850" pageHeight="1100" background="none" math="0" shadow="0">
      <root>
        <mxCell id="0" />
        <mxCell id="1" parent="0" />
        <mxCell id="b8JOZ200KvobYOIYoQXV-1" value="Data Analyst" style="shape=umlActor;verticalLabelPosition=bottom;verticalAlign=top;html=1;outlineConnect=0;" parent="1" vertex="1">
          <mxGeometry x="20" y="370" width="30" height="60" as="geometry" />
        </mxCell>
        <mxCell id="b8JOZ200KvobYOIYoQXV-2" value="" style="swimlane;startSize=0;" parent="1" vertex="1">
          <mxGeometry x="80" y="-240" width="730" height="1300" as="geometry" />
        </mxCell>
        <mxCell id="b8JOZ200KvobYOIYoQXV-20" style="edgeStyle=orthogonalEdgeStyle;rounded=0;orthogonalLoop=1;jettySize=auto;html=1;exitX=1;exitY=0.5;exitDx=0;exitDy=0;entryX=0;entryY=0.5;entryDx=0;entryDy=0;" parent="b8JOZ200KvobYOIYoQXV-2" source="b8JOZ200KvobYOIYoQXV-4" target="b8JOZ200KvobYOIYoQXV-7" edge="1">
          <mxGeometry relative="1" as="geometry" />
        </mxCell>
        <mxCell id="b8JOZ200KvobYOIYoQXV-24" style="edgeStyle=orthogonalEdgeStyle;rounded=0;orthogonalLoop=1;jettySize=auto;html=1;exitX=1;exitY=0.5;exitDx=0;exitDy=0;entryX=0;entryY=0.5;entryDx=0;entryDy=0;" parent="b8JOZ200KvobYOIYoQXV-2" source="b8JOZ200KvobYOIYoQXV-4" target="b8JOZ200KvobYOIYoQXV-5" edge="1">
          <mxGeometry relative="1" as="geometry">
            <Array as="points">
              <mxPoint x="220" y="410" />
              <mxPoint x="220" y="70" />
            </Array>
          </mxGeometry>
        </mxCell>
        <mxCell id="b8JOZ200KvobYOIYoQXV-4" value="View World Population Report" style="ellipse;whiteSpace=wrap;html=1;" parent="b8JOZ200KvobYOIYoQXV-2" vertex="1">
          <mxGeometry x="20" y="370" width="120" height="80" as="geometry" />
        </mxCell>
        <mxCell id="b8JOZ200KvobYOIYoQXV-7" value="Report by Region" style="ellipse;whiteSpace=wrap;html=1;" parent="b8JOZ200KvobYOIYoQXV-2" vertex="1">
          <mxGeometry x="305" y="490" width="120" height="80" as="geometry" />
        </mxCell>
        <mxCell id="b8JOZ200KvobYOIYoQXV-5" value="Report by District" style="ellipse;whiteSpace=wrap;html=1;" parent="b8JOZ200KvobYOIYoQXV-2" vertex="1">
          <mxGeometry x="305" y="30" width="120" height="80" as="geometry" />
        </mxCell>
        <mxCell id="b8JOZ200KvobYOIYoQXV-6" value="Report by Continent" style="ellipse;whiteSpace=wrap;html=1;" parent="b8JOZ200KvobYOIYoQXV-2" vertex="1">
          <mxGeometry x="305" y="190" width="120" height="80" as="geometry" />
        </mxCell>
        <mxCell id="b8JOZ200KvobYOIYoQXV-15" style="edgeStyle=orthogonalEdgeStyle;rounded=0;orthogonalLoop=1;jettySize=auto;html=1;exitX=0.5;exitY=1;exitDx=0;exitDy=0;" parent="b8JOZ200KvobYOIYoQXV-2" source="b8JOZ200KvobYOIYoQXV-8" target="b8JOZ200KvobYOIYoQXV-13" edge="1">
          <mxGeometry relative="1" as="geometry">
            <Array as="points">
              <mxPoint x="365" y="770" />
              <mxPoint x="295" y="770" />
            </Array>
          </mxGeometry>
        </mxCell>
        <mxCell id="b8JOZ200KvobYOIYoQXV-16" style="edgeStyle=orthogonalEdgeStyle;rounded=0;orthogonalLoop=1;jettySize=auto;html=1;exitX=0.5;exitY=1;exitDx=0;exitDy=0;entryX=0.5;entryY=0;entryDx=0;entryDy=0;" parent="b8JOZ200KvobYOIYoQXV-2" source="b8JOZ200KvobYOIYoQXV-8" target="b8JOZ200KvobYOIYoQXV-12" edge="1">
          <mxGeometry relative="1" as="geometry" />
        </mxCell>
        <mxCell id="b8JOZ200KvobYOIYoQXV-18" style="edgeStyle=orthogonalEdgeStyle;rounded=0;orthogonalLoop=1;jettySize=auto;html=1;exitX=0.5;exitY=1;exitDx=0;exitDy=0;entryX=0.5;entryY=0;entryDx=0;entryDy=0;" parent="b8JOZ200KvobYOIYoQXV-2" source="b8JOZ200KvobYOIYoQXV-8" edge="1">
          <mxGeometry relative="1" as="geometry">
            <mxPoint x="640" y="820" as="targetPoint" />
          </mxGeometry>
        </mxCell>
        <mxCell id="b8JOZ200KvobYOIYoQXV-8" value="Top N" style="ellipse;whiteSpace=wrap;html=1;" parent="b8JOZ200KvobYOIYoQXV-2" vertex="1">
          <mxGeometry x="305" y="640" width="120" height="80" as="geometry" />
        </mxCell>
        <mxCell id="b8JOZ200KvobYOIYoQXV-9" value="Report by Cities" style="ellipse;whiteSpace=wrap;html=1;" parent="b8JOZ200KvobYOIYoQXV-2" vertex="1">
          <mxGeometry x="305" y="360" width="120" height="80" as="geometry" />
        </mxCell>
        <mxCell id="b8JOZ200KvobYOIYoQXV-10" value="Top N City" style="ellipse;whiteSpace=wrap;html=1;" parent="b8JOZ200KvobYOIYoQXV-2" vertex="1">
          <mxGeometry x="60" y="820" width="120" height="80" as="geometry" />
        </mxCell>
        <mxCell id="b8JOZ200KvobYOIYoQXV-13" value="Top N Continent" style="ellipse;whiteSpace=wrap;html=1;" parent="b8JOZ200KvobYOIYoQXV-2" vertex="1">
          <mxGeometry x="235" y="820" width="120" height="80" as="geometry" />
        </mxCell>
        <mxCell id="b8JOZ200KvobYOIYoQXV-12" value="Top N Region" style="ellipse;whiteSpace=wrap;html=1;" parent="b8JOZ200KvobYOIYoQXV-2" vertex="1">
          <mxGeometry x="410" y="820" width="120" height="80" as="geometry" />
        </mxCell>
        <mxCell id="b8JOZ200KvobYOIYoQXV-11" value="Top N District" style="ellipse;whiteSpace=wrap;html=1;" parent="b8JOZ200KvobYOIYoQXV-2" vertex="1">
          <mxGeometry x="580" y="820" width="120" height="80" as="geometry" />
        </mxCell>
        <mxCell id="b8JOZ200KvobYOIYoQXV-17" style="edgeStyle=orthogonalEdgeStyle;rounded=0;orthogonalLoop=1;jettySize=auto;html=1;exitX=0.5;exitY=1;exitDx=0;exitDy=0;entryX=0.383;entryY=-0.012;entryDx=0;entryDy=0;entryPerimeter=0;" parent="b8JOZ200KvobYOIYoQXV-2" source="b8JOZ200KvobYOIYoQXV-8" target="b8JOZ200KvobYOIYoQXV-10" edge="1">
          <mxGeometry relative="1" as="geometry" />
        </mxCell>
        <mxCell id="b8JOZ200KvobYOIYoQXV-19" style="edgeStyle=orthogonalEdgeStyle;rounded=0;orthogonalLoop=1;jettySize=auto;html=1;exitX=1;exitY=0.5;exitDx=0;exitDy=0;entryX=0.025;entryY=0.625;entryDx=0;entryDy=0;entryPerimeter=0;" parent="b8JOZ200KvobYOIYoQXV-2" source="b8JOZ200KvobYOIYoQXV-4" target="b8JOZ200KvobYOIYoQXV-9" edge="1">
          <mxGeometry relative="1" as="geometry" />
        </mxCell>
        <mxCell id="b8JOZ200KvobYOIYoQXV-21" style="edgeStyle=orthogonalEdgeStyle;rounded=0;orthogonalLoop=1;jettySize=auto;html=1;exitX=1;exitY=0.5;exitDx=0;exitDy=0;entryX=0.008;entryY=0.588;entryDx=0;entryDy=0;entryPerimeter=0;" parent="b8JOZ200KvobYOIYoQXV-2" source="b8JOZ200KvobYOIYoQXV-4" target="b8JOZ200KvobYOIYoQXV-8" edge="1">
          <mxGeometry relative="1" as="geometry" />
        </mxCell>
        <mxCell id="b8JOZ200KvobYOIYoQXV-22" style="edgeStyle=orthogonalEdgeStyle;rounded=0;orthogonalLoop=1;jettySize=auto;html=1;exitX=1;exitY=0.5;exitDx=0;exitDy=0;entryX=-0.008;entryY=0.588;entryDx=0;entryDy=0;entryPerimeter=0;" parent="b8JOZ200KvobYOIYoQXV-2" source="b8JOZ200KvobYOIYoQXV-4" target="b8JOZ200KvobYOIYoQXV-6" edge="1">
          <mxGeometry relative="1" as="geometry" />
        </mxCell>
        <mxCell id="maeSweDgGXNN0mOj377h-7" style="edgeStyle=orthogonalEdgeStyle;rounded=0;orthogonalLoop=1;jettySize=auto;html=1;exitX=0.5;exitY=1;exitDx=0;exitDy=0;" edge="1" parent="b8JOZ200KvobYOIYoQXV-2" source="b8JOZ200KvobYOIYoQXV-25" target="maeSweDgGXNN0mOj377h-5">
          <mxGeometry relative="1" as="geometry" />
        </mxCell>
        <mxCell id="maeSweDgGXNN0mOj377h-8" style="edgeStyle=orthogonalEdgeStyle;rounded=0;orthogonalLoop=1;jettySize=auto;html=1;exitX=0.5;exitY=1;exitDx=0;exitDy=0;entryX=0;entryY=0.5;entryDx=0;entryDy=0;" edge="1" parent="b8JOZ200KvobYOIYoQXV-2" source="b8JOZ200KvobYOIYoQXV-25" target="maeSweDgGXNN0mOj377h-4">
          <mxGeometry relative="1" as="geometry">
            <Array as="points">
              <mxPoint x="365" y="1130" />
              <mxPoint x="550" y="1130" />
            </Array>
          </mxGeometry>
        </mxCell>
        <mxCell id="maeSweDgGXNN0mOj377h-9" style="edgeStyle=orthogonalEdgeStyle;rounded=0;orthogonalLoop=1;jettySize=auto;html=1;exitX=0.5;exitY=1;exitDx=0;exitDy=0;entryX=1;entryY=0.5;entryDx=0;entryDy=0;" edge="1" parent="b8JOZ200KvobYOIYoQXV-2" source="b8JOZ200KvobYOIYoQXV-25" target="maeSweDgGXNN0mOj377h-6">
          <mxGeometry relative="1" as="geometry">
            <Array as="points">
              <mxPoint x="365" y="1130" />
              <mxPoint x="170" y="1130" />
            </Array>
          </mxGeometry>
        </mxCell>
        <mxCell id="maeSweDgGXNN0mOj377h-10" style="edgeStyle=orthogonalEdgeStyle;rounded=0;orthogonalLoop=1;jettySize=auto;html=1;exitX=0.5;exitY=1;exitDx=0;exitDy=0;entryX=1;entryY=0;entryDx=0;entryDy=0;" edge="1" parent="b8JOZ200KvobYOIYoQXV-2" source="b8JOZ200KvobYOIYoQXV-25" target="maeSweDgGXNN0mOj377h-2">
          <mxGeometry relative="1" as="geometry" />
        </mxCell>
        <mxCell id="b8JOZ200KvobYOIYoQXV-25" value="View language statistics" style="ellipse;whiteSpace=wrap;html=1;" parent="b8JOZ200KvobYOIYoQXV-2" vertex="1">
          <mxGeometry x="295" y="980" width="140" height="70" as="geometry" />
        </mxCell>
        <mxCell id="maeSweDgGXNN0mOj377h-2" value="English Language Report" style="ellipse;whiteSpace=wrap;html=1;" vertex="1" parent="b8JOZ200KvobYOIYoQXV-2">
          <mxGeometry x="90" y="1210" width="140" height="70" as="geometry" />
        </mxCell>
        <mxCell id="maeSweDgGXNN0mOj377h-5" value="Hindi Language Report" style="ellipse;whiteSpace=wrap;html=1;" vertex="1" parent="b8JOZ200KvobYOIYoQXV-2">
          <mxGeometry x="305" y="1210" width="140" height="70" as="geometry" />
        </mxCell>
        <mxCell id="maeSweDgGXNN0mOj377h-6" value="Chinese Language Report" style="ellipse;whiteSpace=wrap;html=1;" vertex="1" parent="b8JOZ200KvobYOIYoQXV-2">
          <mxGeometry x="20" y="1080" width="140" height="70" as="geometry" />
        </mxCell>
        <mxCell id="maeSweDgGXNN0mOj377h-4" value="Arabic Language Report" style="ellipse;whiteSpace=wrap;html=1;" vertex="1" parent="b8JOZ200KvobYOIYoQXV-2">
          <mxGeometry x="580" y="1080" width="140" height="70" as="geometry" />
        </mxCell>
        <mxCell id="maeSweDgGXNN0mOj377h-3" value="Spanish Language Report" style="ellipse;whiteSpace=wrap;html=1;" vertex="1" parent="b8JOZ200KvobYOIYoQXV-2">
          <mxGeometry x="510" y="1210" width="140" height="70" as="geometry" />
        </mxCell>
        <mxCell id="maeSweDgGXNN0mOj377h-11" style="edgeStyle=orthogonalEdgeStyle;rounded=0;orthogonalLoop=1;jettySize=auto;html=1;exitX=0.5;exitY=1;exitDx=0;exitDy=0;entryX=0.064;entryY=0.2;entryDx=0;entryDy=0;entryPerimeter=0;" edge="1" parent="b8JOZ200KvobYOIYoQXV-2" source="b8JOZ200KvobYOIYoQXV-25" target="maeSweDgGXNN0mOj377h-3">
          <mxGeometry relative="1" as="geometry" />
        </mxCell>
        <mxCell id="maeSweDgGXNN0mOj377h-1" style="edgeStyle=orthogonalEdgeStyle;rounded=0;orthogonalLoop=1;jettySize=auto;html=1;exitX=0.5;exitY=0.5;exitDx=0;exitDy=0;exitPerimeter=0;entryX=0.003;entryY=0.493;entryDx=0;entryDy=0;entryPerimeter=0;" edge="1" parent="1" source="b8JOZ200KvobYOIYoQXV-1" target="b8JOZ200KvobYOIYoQXV-2">
          <mxGeometry relative="1" as="geometry" />
        </mxCell>
      </root>
    </mxGraphModel>
  </diagram>
</mxfile>
